<?xml version="1.0" encoding="utf-8"?>
<!-- Generator: Adobe Illustrator 28.3.0, SVG Export Plug-In . SVG Version: 6.00 Build 0)  -->
<svg version="1.1" id="Capa_1" xmlns="http://www.w3.org/2000/svg" xmlns:xlink="http://www.w3.org/1999/xlink" x="0px" y="0px"
	 viewBox="0 0 1000 1000" style="enable-background:new 0 0 1000 1000;" xml:space="preserve">
<style type="text/css">
	.st0{fill:#FFFFFF;}
	.st1{fill:#513D36;}
	.st2{fill:#DBC7B8;}
	.st3{fill:#F7F7F7;}
	.st4{fill:#E5E1E0;}
	.st5{opacity:0.5;clip-path:url(#SVGID_00000032646723753612679690000011179754849510130613_);fill:#513D36;}
	.st6{fill:#6B7161;}
	.st7{fill:#AEA596;}
</style>
<g>
	<path class="st1" d="M112.63,621.51c13.39-3.97,16.86-15.87,16.86-28.27V406.27c0-12.4-3.47-23.81-16.86-27.77h57.03
		c-13.39,3.97-16.86,15.37-16.86,27.77v211.28h62.49c27.77,0,45.63-15.87,59.02-38.68l-9.42,42.65H112.63z"/>
	<path class="st1" d="M319.43,621.51c13.39-3.97,16.86-15.87,16.86-28.27V406.27c0-12.4-3.47-23.81-16.86-27.77h57.03
		c-13.39,3.97-16.86,15.37-16.86,27.77v186.97c0,12.4,3.97,24.3,16.86,28.27H319.43z"/>
	<path class="st1" d="M439.45,378.49h59.02c-8.43,2.48-12.89,11.9-12.89,19.84c0,2.98,0.99,5.95,1.98,8.93l72.41,177.55
		l74.39-179.04c0.99-2.48,1.49-5.46,1.49-7.93c0-10.41-8.93-17.36-18.35-19.34h49.6c-14.88,4.46-23.31,13.39-28.77,27.28
		l-88.78,215.74l-87.78-214.75C457.31,395.85,451.36,383.45,439.45,378.49z"/>
	<path class="st1" d="M805.46,377.5c67.45,0,122.5,54.55,122.5,122.5c0,67.45-55.05,122.5-122.5,122.5
		c-67.94,0-122.5-55.05-122.5-122.5C682.96,432.05,737.51,377.5,805.46,377.5z M811.91,619.03c58.03,0,89.77-61.99,89.77-113.08
		c0-56.54-38.19-124.48-101.67-124.48c-57.53,0-89.77,61.5-89.77,112.58C710.24,550.09,749.91,619.03,811.91,619.03z"/>
</g>
</svg>
